<svg xmlns="http://www.w3.org/2000/svg" viewBox="0 0 200 240" fill="none">
  <!-- Flame / droplet shape -->
  <path d="M100 10 C60 40 30 70 30 110 C30 155 62 185 100 190 C138 185 170 155 170 110 C170 70 140 40 100 10Z" fill="#1d4ed8" opacity="0.15"/>
  <path d="M100 10 C60 40 30 70 30 110 C30 155 62 185 100 190 C138 185 170 155 170 110 C170 70 140 40 100 10Z" fill="none" stroke="#1d4ed8" stroke-width="3"/>

  <!-- Inner decorative curves -->
  <path d="M100 35 C75 58 58 80 58 108 C58 140 76 162 100 167 C124 162 142 140 142 108 C142 80 125 58 100 35Z" fill="#1d4ed8" opacity="0.12"/>

  <!-- Arabic calligraphy stylized (bismillah-like) -->
  <g fill="#1d4ed8">
    <!-- Top swirl -->
    <path d="M100 45 C88 52 80 62 82 72 C84 80 92 84 100 82 C108 80 116 74 116 66 C116 56 108 48 100 45Z"/>
    <!-- Left curve -->
    <path d="M72 90 C65 98 64 110 68 120 C70 126 76 130 82 128 C88 126 90 118 88 110 C86 102 80 94 72 90Z"/>
    <!-- Right curve -->
    <path d="M128 90 C135 98 136 110 132 120 C130 126 124 130 118 128 C112 126 110 118 112 110 C114 102 120 94 128 90Z"/>
    <!-- Bottom flourish -->
    <path d="M90 135 C85 142 86 152 92 156 C96 158 104 158 108 156 C114 152 115 142 110 135 C106 128 94 128 90 135Z"/>
    <!-- Center dot -->
    <circle cx="100" cy="108" r="6"/>
    <!-- Connecting lines -->
    <rect x="98" y="82" width="4" height="26" rx="2"/>
    <rect x="70" y="118" width="22" height="3" rx="1.5"/>
    <rect x="108" y="118" width="22" height="3" rx="1.5"/>
  </g>

  <!-- Decorative bottom swirls -->
  <g fill="none" stroke="#1d4ed8" stroke-width="1.5">
    <path d="M70 175 C65 180 68 188 75 188"/>
    <path d="M130 175 C135 180 132 188 125 188"/>
    <path d="M80 182 C90 186 110 186 120 182"/>
  </g>

  <!-- HALAL SUNNAH text -->
  <text x="100" y="215" text-anchor="middle" font-family="Georgia, serif" font-size="16" font-weight="600" letter-spacing="4" fill="#1d4ed8">HALAL SUNNAH</text>
</svg>
